<svg xmlns="http://www.w3.org/2000/svg" viewBox="0 0 128 128" width="128" height="128"><defs><linearGradient id="bg" x1="0" y1="0" x2="1" y2="1"><stop offset="0" stop-color="#2f6b3a"/><stop offset="1" stop-color="#14301a"/></linearGradient><linearGradient id="sky" x1="0" y1="0" x2="0" y2="1"><stop offset="0" stop-color="#4dabf7"/><stop offset="1" stop-color="#a5d8ff"/></linearGradient></defs><rect width="128" height="128" rx="30" fill="url(#bg)"/><path d="M16 66Q64 18 112 66Q64 110 16 66z" fill="#fff"/><path d="M64 33v64" stroke="#a8ddb7" stroke-width="2.5"/><g stroke="#d3eedb" stroke-width="2.5" stroke-linecap="round"><path d="M30 60h16M27 67h19M30 74h16M82 60h16M82 67h19M82 74h16"/></g><circle cx="64" cy="66" r="19" fill="url(#sky)"/><ellipse cx="57" cy="70" rx="8" ry="3.4" fill="#fff" opacity=".85"/><ellipse cx="70" cy="61" rx="6" ry="2.6" fill="#fff" opacity=".7"/><path d="M68 52c1 4.6 2.4 6 7 7-4.6 1-6 2.4-7 7-1-4.6-2.4-6-7-7 4.6-1 6-2.4 7-7z" fill="#fff"/><path d="M16 66Q64 18 112 66" stroke="#0f240f" stroke-width="4" fill="none" stroke-linecap="round" opacity=".55"/></svg>
